<svg width="240" height="59" viewBox="0 0 240 59" fill="none" xmlns="http://www.w3.org/2000/svg">
<path d="M116.744 16.8183L115.822 12.9259L115.822 12.9259L116.744 16.8183ZM65.7274 28.8988L64.8057 25.0065L64.8057 25.0065L65.7274 28.8988ZM1.67159 26.7163C0.10949 28.2783 0.10949 30.811 1.67159 32.3731L27.1274 57.8289C28.6895 59.391 31.2222 59.391 32.7843 57.8289C34.3464 56.2669 34.3464 53.7342 32.7843 52.1721L10.1569 29.5447L32.7843 6.91726C34.3464 5.35517 34.3464 2.82251 32.7843 1.26041C31.2222 -0.301689 28.6895 -0.301689 27.1274 1.26041L1.67159 26.7163ZM183.195 28.2293L184.095 32.1267L184.095 32.1267L183.195 28.2293ZM171.838 28.0942L172.831 24.2194L172.831 24.2194L171.838 28.0942ZM128.23 16.9232L127.237 20.7981L127.237 20.7981L128.23 16.9232ZM115.822 12.9259L64.8057 25.0065L66.6491 32.7912L117.666 20.7107L115.822 12.9259ZM60.1972 25.5447L4.50001 25.5447V33.5447L60.1972 33.5447V25.5447ZM237.6 11.5579L182.295 24.3319L184.095 32.1267L239.4 19.3527L237.6 11.5579ZM172.831 24.2194L129.223 13.0483L127.237 20.7981L170.845 31.9691L172.831 24.2194ZM182.295 24.3319C179.176 25.0522 175.931 25.0136 172.831 24.2194L170.845 31.9691C175.186 33.081 179.73 33.135 184.095 32.1267L182.295 24.3319ZM64.8057 25.0065C63.2956 25.3641 61.749 25.5447 60.1972 25.5447V33.5447C62.3698 33.5447 64.535 33.2918 66.6491 32.7912L64.8057 25.0065ZM117.666 20.7107C120.816 19.9646 124.101 19.9946 127.237 20.7981L129.223 13.0483C124.832 11.9235 120.233 11.8815 115.822 12.9259L117.666 20.7107Z" fill="black" fill-opacity="0.5"/>
</svg>
