<svg width="239" height="60" viewBox="0 0 239 60" fill="none" xmlns="http://www.w3.org/2000/svg">
<path d="M122.756 42.6817L123.678 46.5741L123.678 46.5741L122.756 42.6817ZM173.773 30.6012L174.694 34.4935L174.694 34.4935L173.773 30.6012ZM237.828 32.7837C239.391 31.2217 239.391 28.689 237.828 27.1269L212.373 1.67105C210.81 0.108956 208.278 0.108956 206.716 1.67105C205.154 3.23315 205.154 5.76581 206.716 7.32791L229.343 29.9553L206.716 52.5827C205.154 54.1448 205.154 56.6775 206.716 58.2396C208.278 59.8017 210.81 59.8017 212.373 58.2396L237.828 32.7837ZM56.3051 31.2707L55.4049 27.3733L55.4049 27.3733L56.3051 31.2707ZM67.662 31.4058L66.6694 35.2806L66.6694 35.2806L67.662 31.4058ZM111.27 42.5768L112.263 38.7019L112.263 38.7019L111.27 42.5768ZM123.678 46.5741L174.694 34.4935L172.851 26.7088L121.834 38.7893L123.678 46.5741ZM179.303 33.9553H235V25.9553H179.303V33.9553ZM1.90019 47.9421L57.2053 35.1681L55.4049 27.3733L0.0998079 40.1473L1.90019 47.9421ZM66.6694 35.2806L110.277 46.4517L112.263 38.7019L68.6546 27.5309L66.6694 35.2806ZM57.2053 35.1681C60.3236 34.4478 63.5691 34.4864 66.6694 35.2806L68.6546 27.5309C64.3143 26.419 59.7705 26.365 55.4049 27.3733L57.2053 35.1681ZM174.694 34.4935C176.204 34.1359 177.751 33.9553 179.303 33.9553V25.9553C177.13 25.9553 174.965 26.2082 172.851 26.7088L174.694 34.4935ZM121.834 38.7893C118.684 39.5354 115.399 39.5054 112.263 38.7019L110.277 46.4517C114.668 47.5765 119.267 47.6185 123.678 46.5741L121.834 38.7893Z" fill="black" fill-opacity="0.5"/>
</svg>
